<!DOCTYPE svg PUBLIC "-//W3C//DTD SVG 1.1//EN" "http://www.w3.org/Graphics/SVG/1.1/DTD/svg11.dtd">
<!-- Uploaded to: SVG Repo, www.svgrepo.com, Transformed by: SVG Repo Mixer Tools -->
<svg width="256px" height="256px" viewBox="-0.32 -0.32 32.64 32.64" version="1.1" xmlns="http://www.w3.org/2000/svg" xmlns:xlink="http://www.w3.org/1999/xlink" fill="#000000" stroke="#000000" stroke-width="0.32">
<g id="SVGRepo_bgCarrier" stroke-width="0"/>
<g id="SVGRepo_tracerCarrier" stroke-linecap="round" stroke-linejoin="round"/>
<g id="SVGRepo_iconCarrier"> <g id="icomoon-ignore"> </g> <path d="M18.882 16c0-5.214-4.227-9.441-9.441-9.441s-9.441 4.227-9.441 9.441c0 5.214 4.227 9.441 9.441 9.441s9.441-4.227 9.441-9.441zM9.441 24.392c-4.627 0-8.392-3.765-8.392-8.392s3.765-8.392 8.392-8.392c4.627 0 8.392 3.765 8.392 8.392s-3.765 8.392-8.392 8.392z" fill="#000000"> </path> <path d="M22.029 6.559h-8.046c0.611 0.295 1.187 0.646 1.725 1.049h6.321c4.628 0 8.392 3.765 8.392 8.392s-3.765 8.392-8.392 8.392h-6.321c-0.538 0.403-1.115 0.754-1.725 1.049h8.046c5.214 0 9.441-4.227 9.441-9.441s-4.227-9.441-9.441-9.441z" fill="#000000"> </path> </g>
</svg>